<mxfile host="Electron" modified="2023-11-13T21:04:14.252Z" agent="Mozilla/5.0 (Windows NT 10.0; Win64; x64) AppleWebKit/537.36 (KHTML, like Gecko) draw.io/22.0.2 Chrome/114.0.5735.289 Electron/25.8.4 Safari/537.36" etag="FvNNjMoVzXWVRFPOFjSu" version="22.0.2" type="device">
  <diagram name="Page-1" id="DfNfoGya0WGEsqfFT4Nv">
    <mxGraphModel dx="1102" dy="811" grid="1" gridSize="10" guides="1" tooltips="1" connect="1" arrows="1" fold="1" page="1" pageScale="1" pageWidth="1100" pageHeight="850" math="0" shadow="0">
      <root>
        <mxCell id="0" />
        <mxCell id="1" parent="0" />
        <mxCell id="Puk3hGTPazBIEi4iqphF-1" value="" style="edgeStyle=orthogonalEdgeStyle;rounded=0;orthogonalLoop=1;jettySize=auto;html=1;" edge="1" parent="1" source="Puk3hGTPazBIEi4iqphF-2" target="Puk3hGTPazBIEi4iqphF-5">
          <mxGeometry relative="1" as="geometry" />
        </mxCell>
        <mxCell id="Puk3hGTPazBIEi4iqphF-2" value="&lt;p style=&quot;line-height: 90%;&quot;&gt;&lt;font style=&quot;font-size: 10px;&quot;&gt;Start&lt;/font&gt;&lt;/p&gt;" style="ellipse;whiteSpace=wrap;html=1;aspect=fixed;" vertex="1" parent="1">
          <mxGeometry x="80" y="120" width="40" height="40" as="geometry" />
        </mxCell>
        <mxCell id="Puk3hGTPazBIEi4iqphF-3" value="&lt;font style=&quot;font-size: 10px;&quot;&gt;Finish&lt;/font&gt;" style="ellipse;whiteSpace=wrap;html=1;aspect=fixed;fontSize=7;" vertex="1" parent="1">
          <mxGeometry x="440" y="240" width="40" height="40" as="geometry" />
        </mxCell>
        <mxCell id="Puk3hGTPazBIEi4iqphF-4" value="" style="edgeStyle=orthogonalEdgeStyle;rounded=0;orthogonalLoop=1;jettySize=auto;html=1;" edge="1" parent="1" source="Puk3hGTPazBIEi4iqphF-5" target="Puk3hGTPazBIEi4iqphF-7">
          <mxGeometry relative="1" as="geometry" />
        </mxCell>
        <mxCell id="Puk3hGTPazBIEi4iqphF-5" value="&lt;font style=&quot;font-size: 10px;&quot;&gt;Select Nav Menu&lt;/font&gt;" style="rounded=1;whiteSpace=wrap;html=1;" vertex="1" parent="1">
          <mxGeometry x="200" y="120" width="120" height="40" as="geometry" />
        </mxCell>
        <mxCell id="Puk3hGTPazBIEi4iqphF-6" value="" style="edgeStyle=orthogonalEdgeStyle;rounded=0;orthogonalLoop=1;jettySize=auto;html=1;" edge="1" parent="1" source="Puk3hGTPazBIEi4iqphF-7" target="Puk3hGTPazBIEi4iqphF-9">
          <mxGeometry relative="1" as="geometry" />
        </mxCell>
        <mxCell id="Puk3hGTPazBIEi4iqphF-7" value="&lt;font style=&quot;font-size: 10px;&quot;&gt;Click Events&amp;nbsp;Link&lt;/font&gt;" style="rounded=1;whiteSpace=wrap;html=1;" vertex="1" parent="1">
          <mxGeometry x="200" y="240" width="120" height="40" as="geometry" />
        </mxCell>
        <mxCell id="Puk3hGTPazBIEi4iqphF-8" value="" style="edgeStyle=orthogonalEdgeStyle;rounded=0;orthogonalLoop=1;jettySize=auto;html=1;" edge="1" parent="1" source="Puk3hGTPazBIEi4iqphF-9" target="Puk3hGTPazBIEi4iqphF-11">
          <mxGeometry relative="1" as="geometry" />
        </mxCell>
        <mxCell id="Puk3hGTPazBIEi4iqphF-9" value="&lt;font style=&quot;font-size: 10px;&quot;&gt;Click Individual&lt;br&gt;Event Link&lt;/font&gt;" style="rounded=1;whiteSpace=wrap;html=1;" vertex="1" parent="1">
          <mxGeometry x="200" y="360" width="120" height="40" as="geometry" />
        </mxCell>
        <mxCell id="Puk3hGTPazBIEi4iqphF-10" value="" style="edgeStyle=orthogonalEdgeStyle;rounded=0;orthogonalLoop=1;jettySize=auto;html=1;" edge="1" parent="1" source="Puk3hGTPazBIEi4iqphF-11" target="Puk3hGTPazBIEi4iqphF-16">
          <mxGeometry relative="1" as="geometry" />
        </mxCell>
        <mxCell id="Puk3hGTPazBIEi4iqphF-11" value="&lt;font style=&quot;font-size: 10px;&quot;&gt;Find Friends List&lt;/font&gt;" style="rounded=1;whiteSpace=wrap;html=1;" vertex="1" parent="1">
          <mxGeometry x="200" y="480" width="120" height="40" as="geometry" />
        </mxCell>
        <mxCell id="Puk3hGTPazBIEi4iqphF-12" value="" style="edgeStyle=orthogonalEdgeStyle;rounded=0;orthogonalLoop=1;jettySize=auto;html=1;" edge="1" parent="1" source="Puk3hGTPazBIEi4iqphF-16" target="Puk3hGTPazBIEi4iqphF-18">
          <mxGeometry relative="1" as="geometry" />
        </mxCell>
        <mxCell id="Puk3hGTPazBIEi4iqphF-13" value="Yes" style="edgeLabel;html=1;align=center;verticalAlign=middle;resizable=0;points=[];" vertex="1" connectable="0" parent="Puk3hGTPazBIEi4iqphF-12">
          <mxGeometry x="-0.0508" relative="1" as="geometry">
            <mxPoint as="offset" />
          </mxGeometry>
        </mxCell>
        <mxCell id="Puk3hGTPazBIEi4iqphF-14" value="" style="edgeStyle=orthogonalEdgeStyle;rounded=0;orthogonalLoop=1;jettySize=auto;html=1;" edge="1" parent="1" source="Puk3hGTPazBIEi4iqphF-16" target="Puk3hGTPazBIEi4iqphF-20">
          <mxGeometry relative="1" as="geometry" />
        </mxCell>
        <mxCell id="Puk3hGTPazBIEi4iqphF-15" value="No" style="edgeLabel;html=1;align=center;verticalAlign=middle;resizable=0;points=[];" vertex="1" connectable="0" parent="Puk3hGTPazBIEi4iqphF-14">
          <mxGeometry x="-0.3206" y="-2" relative="1" as="geometry">
            <mxPoint as="offset" />
          </mxGeometry>
        </mxCell>
        <mxCell id="Puk3hGTPazBIEi4iqphF-16" value="&lt;p style=&quot;line-height: 100%;&quot;&gt;&lt;span style=&quot;font-size: 10px;&quot;&gt;Friend Visible?&lt;/span&gt;&lt;/p&gt;" style="rhombus;whiteSpace=wrap;html=1;" vertex="1" parent="1">
          <mxGeometry x="430" y="470" width="60" height="60" as="geometry" />
        </mxCell>
        <mxCell id="Puk3hGTPazBIEi4iqphF-17" value="" style="edgeStyle=orthogonalEdgeStyle;rounded=0;orthogonalLoop=1;jettySize=auto;html=1;" edge="1" parent="1" source="Puk3hGTPazBIEi4iqphF-18" target="Puk3hGTPazBIEi4iqphF-3">
          <mxGeometry relative="1" as="geometry" />
        </mxCell>
        <mxCell id="Puk3hGTPazBIEi4iqphF-18" value="&lt;font style=&quot;font-size: 10px;&quot;&gt;Click Trash Button&lt;br&gt;next to Friend&lt;br&gt;&lt;/font&gt;" style="rounded=1;whiteSpace=wrap;html=1;" vertex="1" parent="1">
          <mxGeometry x="400" y="360" width="120" height="40" as="geometry" />
        </mxCell>
        <mxCell id="Puk3hGTPazBIEi4iqphF-19" value="" style="edgeStyle=orthogonalEdgeStyle;rounded=0;orthogonalLoop=1;jettySize=auto;html=1;" edge="1" parent="1" source="Puk3hGTPazBIEi4iqphF-20" target="Puk3hGTPazBIEi4iqphF-25">
          <mxGeometry relative="1" as="geometry" />
        </mxCell>
        <mxCell id="Puk3hGTPazBIEi4iqphF-20" value="&lt;font style=&quot;font-size: 10px;&quot;&gt;Search Friend&lt;br&gt;by Name or Email&lt;br&gt;&lt;/font&gt;" style="rounded=1;whiteSpace=wrap;html=1;" vertex="1" parent="1">
          <mxGeometry x="400" y="600" width="120" height="40" as="geometry" />
        </mxCell>
        <mxCell id="Puk3hGTPazBIEi4iqphF-21" style="edgeStyle=orthogonalEdgeStyle;rounded=0;orthogonalLoop=1;jettySize=auto;html=1;entryX=0.5;entryY=1;entryDx=0;entryDy=0;exitX=0.5;exitY=1;exitDx=0;exitDy=0;" edge="1" parent="1" source="Puk3hGTPazBIEi4iqphF-25" target="Puk3hGTPazBIEi4iqphF-20">
          <mxGeometry relative="1" as="geometry">
            <Array as="points">
              <mxPoint x="660" y="680" />
              <mxPoint x="460" y="680" />
            </Array>
          </mxGeometry>
        </mxCell>
        <mxCell id="Puk3hGTPazBIEi4iqphF-22" value="&amp;nbsp;No&amp;nbsp;" style="edgeLabel;html=1;align=center;verticalAlign=middle;resizable=0;points=[];" vertex="1" connectable="0" parent="Puk3hGTPazBIEi4iqphF-21">
          <mxGeometry x="-0.0593" relative="1" as="geometry">
            <mxPoint as="offset" />
          </mxGeometry>
        </mxCell>
        <mxCell id="Puk3hGTPazBIEi4iqphF-23" style="edgeStyle=orthogonalEdgeStyle;rounded=0;orthogonalLoop=1;jettySize=auto;html=1;entryX=1;entryY=0.5;entryDx=0;entryDy=0;exitX=0.5;exitY=0;exitDx=0;exitDy=0;" edge="1" parent="1" source="Puk3hGTPazBIEi4iqphF-25" target="Puk3hGTPazBIEi4iqphF-18">
          <mxGeometry relative="1" as="geometry" />
        </mxCell>
        <mxCell id="Puk3hGTPazBIEi4iqphF-24" value="Yes" style="edgeLabel;html=1;align=center;verticalAlign=middle;resizable=0;points=[];" vertex="1" connectable="0" parent="Puk3hGTPazBIEi4iqphF-23">
          <mxGeometry x="-0.4725" y="1" relative="1" as="geometry">
            <mxPoint as="offset" />
          </mxGeometry>
        </mxCell>
        <mxCell id="Puk3hGTPazBIEi4iqphF-25" value="&lt;p style=&quot;line-height: 100%;&quot;&gt;&lt;span style=&quot;font-size: 10px;&quot;&gt;Friend Found?&lt;/span&gt;&lt;/p&gt;" style="rhombus;whiteSpace=wrap;html=1;" vertex="1" parent="1">
          <mxGeometry x="630" y="590" width="60" height="60" as="geometry" />
        </mxCell>
      </root>
    </mxGraphModel>
  </diagram>
</mxfile>
